<svg width="28" height="22" viewBox="0 0 28 22" fill="none" xmlns="http://www.w3.org/2000/svg">
<path d="M2.6665 21.6666C2.13317 21.6666 1.6665 21.4666 1.2665 21.0666C0.866504 20.6666 0.666504 20.1999 0.666504 19.6666V2.33325C0.666504 1.79992 0.866504 1.33325 1.2665 0.933252C1.6665 0.533252 2.13317 0.333252 2.6665 0.333252H25.3332C25.8665 0.333252 26.3332 0.533252 26.7332 0.933252C27.1332 1.33325 27.3332 1.79992 27.3332 2.33325V19.6666C27.3332 20.1999 27.1332 20.6666 26.7332 21.0666C26.3332 21.4666 25.8665 21.6666 25.3332 21.6666H2.6665ZM13.9998 11.5999L25.3332 4.16658V2.33325L13.9998 9.59992L2.6665 2.33325V4.16658L13.9998 11.5999Z" fill="#6C757D"/>
</svg>
