<svg xmlns="http://www.w3.org/2000/svg" fill="none" viewBox="121.4 64.96 267.22 635.31">
<path d="M152.458 206.59C152.818 206.6 153.178 206.61 153.528 206.61C167.204 206.61 178.669 196.11 179.899 182.53H330.111C331.341 196.12 342.796 206.61 356.482 206.61C356.832 206.61 357.192 206.61 357.552 206.59C375.38 205.88 389.305 190.8 388.595 172.98C387.745 151.66 369.677 134.94 347.458 134.91H162.552C140.343 134.94 122.275 151.66 121.425 172.98C120.715 190.8 134.64 205.88 152.468 206.59H152.458ZM330.341 176.53H179.669C178.849 171.88 176.538 167.71 173.226 164.56H336.794C336.454 164.89 336.103 165.2 335.783 165.55C332.912 168.66 331.061 172.46 330.341 176.53ZM127.417 173.22C128.138 155.13 143.574 140.94 162.552 140.91H347.448C366.426 140.93 381.862 155.12 382.583 173.22C383.163 187.74 371.818 200.02 357.302 200.6C346.007 201.06 336.464 192.24 336.013 180.96C335.843 176.75 337.324 172.72 340.185 169.63C343.046 166.53 346.938 164.73 351.15 164.57C357.752 164.31 363.385 169.48 363.655 176.1C363.755 178.51 362.904 180.81 361.274 182.58C360.133 183.82 358.693 184.68 357.112 185.13C359.983 183.66 361.944 180.69 361.944 177.24C361.944 173.79 359.943 170.77 357.042 169.32C355.621 168.57 354.031 168.19 352.39 168.25C346.498 168.49 341.896 173.47 342.126 179.36C342.256 182.73 343.697 185.84 346.178 188.13C348.659 190.42 351.88 191.6 355.241 191.47C359.253 191.31 362.954 189.6 365.686 186.65C368.407 183.7 369.817 179.87 369.657 175.86C369.257 165.98 360.914 158.26 351.08 158.57C351.07 158.57 351.05 158.57 351.04 158.57H158.96C158.96 158.57 158.94 158.57 158.92 158.57C154.168 158.42 149.627 160.1 146.125 163.33C142.584 166.6 140.533 171.04 140.343 175.85C140.183 179.86 141.593 183.69 144.314 186.64C147.035 189.59 150.747 191.3 154.759 191.46C158.14 191.59 161.351 190.41 163.822 188.12C166.303 185.83 167.734 182.72 167.874 179.35C168.114 173.46 163.502 168.47 157.61 168.24C155.949 168.17 154.379 168.56 152.998 169.29C150.067 170.74 148.046 173.74 148.046 177.23C148.046 180.72 150.017 183.65 152.878 185.12C151.297 184.67 149.857 183.81 148.716 182.57C147.086 180.8 146.235 178.5 146.335 176.09C146.465 172.88 147.836 169.91 150.197 167.74C152.558 165.56 155.649 164.44 158.84 164.56C167.534 164.91 174.337 172.26 173.987 180.96C173.536 192.24 163.952 201.05 152.698 200.6C138.182 200.02 126.837 187.74 127.417 173.22Z" fill="#E9ECEF"/>
<path d="M330.441 185.91H308.732L308.622 185.8L308.512 185.91H281.931L281.821 185.8L281.711 185.91H255.13L255.02 185.8L254.91 185.91H228.329L228.219 185.8L228.109 185.91H201.528L201.418 185.8L201.308 185.91H179.599V247.28H201.308L201.418 247.39L201.528 247.28H228.109L228.219 247.39L228.329 247.28H254.91L255.02 247.39L255.13 247.28H281.711L281.821 247.39L281.931 247.28H308.512L308.622 247.39L308.732 247.28H330.441V185.91ZM185.571 241.28V191.91H196.146C193.104 196.42 188.863 204.68 188.222 216.43V216.59V216.75C188.863 228.5 193.104 236.76 196.146 241.27H185.571V241.28ZM201.398 238.31C198.847 234.61 194.845 227.21 194.225 216.6C194.845 205.98 198.847 198.58 201.398 194.89C203.949 198.59 207.951 205.99 208.571 216.6C207.951 227.22 203.949 234.61 201.398 238.31ZM206.65 241.28C209.691 236.77 213.933 228.51 214.573 216.76V216.6V216.44C213.933 204.69 209.691 196.43 206.65 191.92H222.957C219.916 196.43 215.674 204.69 215.034 216.44V216.6V216.76C215.674 228.51 219.916 236.77 222.957 241.28H206.65ZM228.209 238.31C225.658 234.61 221.656 227.21 221.036 216.6C221.656 205.98 225.658 198.58 228.209 194.89C230.76 198.59 234.762 205.99 235.382 216.6C234.762 227.22 230.76 234.61 228.209 238.31ZM233.461 241.28C236.502 236.77 240.744 228.51 241.384 216.76V216.6V216.44C240.744 204.69 236.502 196.43 233.461 191.92H249.768C246.727 196.43 242.485 204.69 241.845 216.44V216.6V216.76C242.485 228.51 246.727 236.77 249.768 241.28H233.461ZM255.01 238.32C252.459 234.65 248.467 227.29 247.847 216.59C248.467 205.97 252.469 198.57 255.02 194.88C257.571 198.58 261.573 205.98 262.193 216.59C261.573 227.22 257.561 234.62 255.01 238.32ZM260.272 241.28C263.313 236.77 267.555 228.51 268.195 216.76V216.6V216.44C267.555 204.69 263.313 196.43 260.272 191.92H276.579C273.538 196.43 269.296 204.69 268.656 216.44V216.6V216.76C269.296 228.51 273.538 236.77 276.579 241.28H260.272ZM281.821 238.32C279.27 234.65 275.278 227.29 274.658 216.59C275.278 205.97 279.28 198.57 281.831 194.88C284.382 198.58 288.384 205.98 289.004 216.59C288.384 227.22 284.372 234.62 281.821 238.32ZM287.083 241.28C290.124 236.77 294.366 228.51 295.006 216.76V216.6V216.44C294.366 204.69 290.124 196.43 287.083 191.92H303.39C300.349 196.43 296.107 204.69 295.467 216.44V216.6V216.76C296.107 228.51 300.349 236.77 303.39 241.28H287.083ZM308.632 238.32C306.081 234.65 302.089 227.29 301.469 216.59C302.089 205.97 306.091 198.57 308.642 194.88C311.193 198.58 315.205 205.98 315.815 216.59C315.195 227.22 311.183 234.62 308.632 238.32ZM324.469 241.28H313.894C316.936 236.77 321.177 228.51 321.817 216.76V216.6V216.44C321.177 204.69 316.936 196.43 313.894 191.92H324.469V241.29V241.28Z" fill="#E9ECEF"/>
<path d="M180.829 250.9V700.27H329.171V250.9H180.829ZM323.168 694.27H186.832V256.9H323.168V694.27Z" fill="#E9ECEF"/>
<path d="M358.413 64.96H151.587V87.41H358.413V64.96ZM352.41 81.41H157.59V70.96H352.41V81.41Z" fill="#E9ECEF"/>
<path d="M201.768 683.1C207.61 683.1 212.372 678.35 212.372 672.5V274.71C212.372 268.87 207.62 264.11 201.768 264.11C195.916 264.11 191.164 268.86 191.164 274.71V672.51C191.164 678.35 195.916 683.11 201.768 683.11V683.1Z" fill="#E9ECEF"/>
<path d="M228.389 683.1C234.231 683.1 238.993 678.35 238.993 672.5V274.71C238.993 268.87 234.241 264.11 228.389 264.11C222.537 264.11 217.785 268.86 217.785 274.71V672.51C217.785 678.35 222.537 683.11 228.389 683.11V683.1Z" fill="#E9ECEF"/>
<path d="M255 683.1C260.842 683.1 265.604 678.35 265.604 672.5V274.71C265.604 268.87 260.852 264.11 255 264.11C249.148 264.11 244.396 268.86 244.396 274.71V672.51C244.396 678.35 249.148 683.11 255 683.11V683.1Z" fill="#E9ECEF"/>
<path d="M281.621 683.1C287.463 683.1 292.225 678.35 292.225 672.5V274.71C292.225 268.87 287.473 264.11 281.621 264.11C275.769 264.11 271.017 268.86 271.017 274.71V672.51C271.017 678.35 275.769 683.11 281.621 683.11V683.1Z" fill="#E9ECEF"/>
<path d="M308.232 683.1C314.074 683.1 318.836 678.35 318.836 672.5V274.71C318.836 268.87 314.084 264.11 308.232 264.11C302.38 264.11 297.628 268.86 297.628 274.71V672.51C297.628 678.35 302.38 683.11 308.232 683.11V683.1Z" fill="#E9ECEF"/>
<path d="M329.701 91.8999H180.299C173.777 91.8999 168.394 96.8099 167.634 103.13H167.534V119.23H167.634C168.394 125.55 173.787 130.46 180.299 130.46H329.701C336.223 130.46 341.606 125.55 342.366 119.23H342.466V103.13H342.366C341.606 96.8199 336.213 91.8999 329.701 91.8999ZM180.299 97.8999H329.701C332.902 97.8999 335.583 100.14 336.284 103.13H173.707C174.407 100.14 177.088 97.8999 180.289 97.8999H180.299ZM329.701 124.46H180.299C177.098 124.46 174.417 122.22 173.717 119.23H336.294C335.593 122.22 332.912 124.46 329.711 124.46H329.701ZM336.474 113.23H173.536V109.13H336.474V113.23Z" fill="#E9ECEF"/>
</svg>