<svg xmlns="http://www.w3.org/2000/svg" fill="none" viewBox="286.89 64.96 299.87 850.08">
<path d="M345.29 217.01C345.29 224.16 351.11 229.98 358.26 229.98H515.38C522.53 229.98 528.35 224.16 528.35 217.01V199.88C528.35 192.73 522.53 186.91 515.38 186.91H358.26C351.11 186.91 345.29 192.73 345.29 199.88V217.01ZM351.29 199.88C351.29 196.04 354.42 192.91 358.26 192.91H515.38C519.22 192.91 522.35 196.04 522.35 199.88V205.45H351.29V199.88ZM351.29 211.45H522.35V217.02C522.35 220.86 519.22 223.99 515.38 223.99H358.26C354.42 223.99 351.29 220.86 351.29 217.02V211.45Z" fill="#E9ECEF"/>
<path d="M510.96 745.24V234.09H362.68V745.23H510.96V745.24ZM368.68 240.09H504.96V739.23H368.68V240.09Z" fill="#E9ECEF"/>
<path d="M359.36 146.71C361.3 163.31 361.42 179.39 361.42 179.55L361.44 182.53H512.21L512.23 179.55C512.38 153.52 516.7 115.15 525.84 111.32L527.68 110.55V90.8201H345.96V110.55L347.8 111.32C350.14 112.3 355.97 117.72 359.35 146.71H359.36ZM367.37 176.53C367.24 171.03 366.8 158.7 365.33 146.06C364.07 135.29 362.38 126.72 360.22 120.24C366.73 128.65 373.58 144.98 373.64 176.53H367.37ZM379.72 176.53C381.05 135.06 385.41 119.5 387.88 113.91C390.35 119.49 394.71 135.06 396.03 176.53H379.72ZM404.2 176.53C405.53 135.06 409.89 119.5 412.35 113.91C414.82 119.49 419.18 135.06 420.51 176.53H404.2ZM428.68 176.53C430.01 135.06 434.37 119.5 436.83 113.91C439.3 119.49 443.66 135.06 444.99 176.53H428.68ZM453.16 176.53C454.49 135.06 458.85 119.5 461.31 113.91C463.78 119.49 468.14 135.06 469.47 176.53H453.16ZM477.64 176.53C478.97 135.06 483.33 119.5 485.79 113.91C488.26 119.49 492.62 135.06 493.95 176.53H477.64ZM508.34 146.06C506.86 158.7 506.43 171.03 506.3 176.53H500.03C500.1 145.56 506.85 129.22 513.32 120.67C511.23 127.1 509.57 135.53 508.34 146.06ZM351.98 96.8201H521.7V105.55H351.98V96.8201Z" fill="#E9ECEF"/>
<path d="M540.19 64.96H333.45V87.41H540.19V64.96ZM534.19 81.41H339.45V70.96H534.19V81.41Z" fill="#E9ECEF"/>
<path d="M565.42 860.53L563.1 859.99C534.16 853.24 522.57 825 522.46 824.72L521.71 822.83H351.93L351.18 824.72C351.07 825 339.48 853.24 310.54 859.99L308.22 860.53V884.45H565.43V860.53H565.42ZM355.92 828.83H517.72C520.31 834.34 528.98 850.3 546.35 859.91H327.29C344.66 850.3 353.33 834.33 355.92 828.83ZM559.42 878.45H314.21V865.91H559.42V878.45Z" fill="#E9ECEF"/>
<path d="M286.89 887.44V915.04H586.76V887.44H286.89ZM580.76 909.04H292.89V893.44H580.76V909.04Z" fill="#E9ECEF"/>
<path d="M383.61 247.3C377.77 247.3 373.01 252.05 373.01 257.9V717.47C373.01 723.31 377.76 728.07 383.61 728.07C389.46 728.07 394.21 723.32 394.21 717.47V257.9C394.21 252.06 389.46 247.3 383.61 247.3Z" fill="#E9ECEF"/>
<path d="M410.22 247.3C404.38 247.3 399.62 252.05 399.62 257.9V717.47C399.62 723.31 404.37 728.07 410.22 728.07C416.07 728.07 420.82 723.32 420.82 717.47V257.9C420.82 252.06 416.07 247.3 410.22 247.3Z" fill="#E9ECEF"/>
<path d="M436.82 247.3C430.98 247.3 426.22 252.05 426.22 257.9V717.47C426.22 723.31 430.97 728.07 436.82 728.07C442.67 728.07 447.42 723.32 447.42 717.47V257.9C447.42 252.06 442.67 247.3 436.82 247.3Z" fill="#E9ECEF"/>
<path d="M463.42 247.3C457.58 247.3 452.82 252.05 452.82 257.9V717.47C452.82 723.31 457.57 728.07 463.42 728.07C469.27 728.07 474.02 723.32 474.02 717.47V257.9C474.02 252.06 469.27 247.3 463.42 247.3Z" fill="#E9ECEF"/>
<path d="M490.03 247.3C484.19 247.3 479.43 252.05 479.43 257.9V717.47C479.43 723.31 484.18 728.07 490.03 728.07C495.88 728.07 500.63 723.32 500.63 717.47V257.9C500.63 252.06 495.88 247.3 490.03 247.3Z" fill="#E9ECEF"/>
<path d="M536.45 783.84H536.5V764.17H536.45C535.92 755.7 528.88 748.97 520.28 748.97H353.35C344.75 748.97 337.72 755.7 337.18 764.17H337.13V783.84H337.18C337.71 792.31 344.75 799.04 353.35 799.04H520.28C528.88 799.04 535.91 792.31 536.45 783.84ZM520.28 793.04H353.35C348.06 793.04 343.7 789 343.18 783.84H530.45C529.94 789 525.57 793.04 520.28 793.04ZM343.18 764.17C343.69 759.01 348.06 754.97 353.35 754.97H520.28C525.57 754.97 529.93 759.01 530.45 764.17H343.18Z" fill="#E9ECEF"/>
<path d="M351.46 820.1H522.18V801.93H351.46V820.1ZM357.46 807.93H516.18V814.1H357.46V807.93Z" fill="#E9ECEF"/>
</svg>