<svg width="159" height="53" viewBox="0 0 159 53" fill="none" xmlns="http://www.w3.org/2000/svg">
<path d="M94.3141 7.51093L89.3223 15.096V34.0531V52.9998H99.722H110.121V34.0212V15.0428L104.795 7.55348C101.86 3.44714 99.4216 0.0429273 99.3869 0.000374629C99.3407 -0.0528162 97.0643 3.33012 94.3141 7.51093ZM104.101 12.4364L106.655 16.0321V16.7555V17.4789L106.343 17.3193C106.158 17.2342 105.604 16.9469 105.095 16.6598C104.587 16.3831 104.113 16.1597 104.044 16.1597C103.974 16.1597 102.981 16.6491 101.848 17.2555C100.716 17.8619 99.7335 18.3512 99.6643 18.3512C99.5949 18.3512 98.6705 17.8406 97.5958 17.2236L95.6545 16.0853L94.3026 16.7768C93.5631 17.1597 92.916 17.4683 92.8697 17.4683C92.8235 17.4683 92.7889 17.1385 92.7889 16.7449V16.0215L94.8804 12.8407C96.0243 11.0853 97.0989 9.46835 97.2491 9.24494L97.5265 8.85134H99.5371H101.536L104.101 12.4364ZM105.592 20.6384L106.655 21.2129V35.5106V49.8083H105.5H104.344V34.9042C104.344 26.7128 104.39 20.0214 104.437 20.0427C104.483 20.0533 105.003 20.3299 105.592 20.6384ZM95.0999 34.9681V49.8083H93.9443H92.7889V35.5212V21.2449L93.8635 20.6916C94.4412 20.3831 94.9612 20.1278 95.0191 20.1278C95.0652 20.1278 95.0999 26.8086 95.0999 34.9681ZM100.877 35.6595V49.8083H99.722H98.5664V35.7127V21.6065L99.0864 21.8831L99.6064 22.1703L100.207 21.8406C100.542 21.6597 100.831 21.5107 100.854 21.5107C100.866 21.5107 100.877 27.8724 100.877 35.6595Z" fill="#E3E3E3"/>
<path d="M39.4033 12.6385C33.2213 13.1386 28.1254 14.4364 23.1104 16.7875C18.9852 18.7129 15.8423 20.8299 12.4104 24.0001C10.0415 26.1916 8.80508 27.5639 7.10647 29.9149C4.92252 32.9256 3.4319 35.734 2.1955 39.1595C0.75109 43.1595 0 47.4998 0 51.787V52.9998H10.3882H20.7648L20.8456 51.2232C20.8919 50.2444 21.0075 49.0104 21.0883 48.4679C22.0012 42.9147 25.41 38.0319 30.5289 34.9468C31.8231 34.1595 34.0764 33.149 35.4168 32.7447C40.7554 31.1383 46.556 31.4788 51.4785 33.7021C56.2856 35.8617 60.0179 39.5212 62.0054 44.0318C62.9991 46.2977 63.4267 48.2977 63.5191 51.053L63.5885 52.9998H73.9881H84.3879L84.3185 50.4679C84.1914 46.0956 83.5327 42.7021 82.0306 38.6914C77.4431 26.4363 66.2923 16.9682 52.7034 13.7981C49.1444 12.9683 46.7179 12.6811 42.87 12.6385C41.2522 12.6172 39.6923 12.6172 39.4033 12.6385ZM46.3365 15.9789C60.4454 17.447 72.3127 25.5959 77.8823 37.6276C79.5116 41.1382 80.4475 44.8722 80.8058 49.2445L80.852 49.8083H79.7196H78.5987L78.5294 49.0849C77.836 41.9999 75.4094 36.1808 70.8683 30.7554C69.5741 29.2022 66.2923 26.1809 64.6054 24.9895C57.9842 20.2874 50.4039 17.8938 42.1766 17.8938C33.8452 17.8938 25.93 20.4576 19.355 25.2873C16.8706 27.1065 13.7854 30.2128 11.9019 32.7979C9.7064 35.7872 7.86912 39.617 6.87537 43.202C6.49404 44.585 6.04339 47.0211 5.95094 48.2126C5.91627 48.7125 5.8585 49.2764 5.82383 49.4572L5.76606 49.8083H4.67987H3.58212V49.3509C3.58212 48.6594 3.89411 46.2765 4.15988 44.9148C6.00872 35.5106 12.1561 26.9682 20.8919 21.681C26.5077 18.2874 32.5164 16.3938 39.2877 15.8726C40.7554 15.7662 44.8112 15.8194 46.3365 15.9789ZM46.8565 21.3937C49.1444 21.7129 50.4964 22.0108 52.5185 22.6278C59.5556 24.7767 65.5066 28.9681 69.6202 34.6489C72.7517 38.9787 74.5081 43.7339 75.0281 49.2977L75.0859 49.8083H73.9419C73.3064 49.8083 72.7979 49.7764 72.7979 49.7232C72.7979 49.6806 72.7171 49.0317 72.6246 48.2658C71.55 39.7872 66.6044 32.4256 58.8739 27.766C54.8873 25.3511 50.4271 23.8937 45.4698 23.3618C43.517 23.149 39.6691 23.2129 37.7856 23.4789C35.2319 23.8405 32.3546 24.5852 30.0436 25.5001C23.6304 28.0213 17.9452 32.9681 14.756 38.8191C13.2539 41.5531 11.9827 45.6382 11.7286 48.4786C11.613 49.9254 11.717 49.8083 10.4575 49.8083H9.35974V49.3828C9.35974 47.3296 10.3304 43.1488 11.3935 40.6169C12.5259 37.9361 14.6289 34.5745 16.524 32.4149C18.1764 30.5213 20.8341 28.2022 22.9371 26.8086C27.7788 23.6171 33.1404 21.7661 39.23 21.1917C40.894 21.0427 45.1231 21.1491 46.8565 21.3937ZM46.1631 26.6596C56.2856 28.1277 64.536 34.4468 67.8639 43.2871C68.5572 45.1168 69.2158 48.053 69.2158 49.2977V49.8083H68.1181H67.0319L66.9741 49.4572C66.9394 49.2764 66.8586 48.6807 66.7777 48.1594C66.7083 47.6275 66.4773 46.5743 66.2693 45.819C63.7618 36.5957 55.3958 29.8298 45.0654 28.6916C39.3918 28.0532 33.2791 29.3937 28.5414 32.3086C22.4056 36.0851 18.3959 42.0531 17.5408 48.6594L17.4021 49.8083H16.2698H15.1373V49.4466C15.1373 49.2445 15.1952 48.7019 15.2529 48.2445C16.4546 39.8935 21.9202 32.8192 30.0436 29.0639C33.2098 27.6064 36.2372 26.8192 40.0389 26.4682C41.0327 26.3724 45.0654 26.5108 46.1631 26.6596Z" fill="#E3E3E3"/>
<path d="M153.823 12.6917C145.215 13.3406 136.93 16.4789 130.285 21.5852C121.966 27.9787 116.638 37.0318 115.379 46.936C115.275 47.7232 115.16 49.4146 115.125 50.6806L115.056 52.9997H125.467H135.89V52.0104C135.89 50.6062 136.098 48.6487 136.364 47.4147C137.369 42.819 140.385 38.4573 144.499 35.6595C148.381 33.0212 152.726 31.7234 157.683 31.7234H159V22.149V12.5747L157.013 12.5853C155.916 12.5959 154.471 12.6491 153.823 12.6917ZM155.534 16.8725V17.8725L154.76 17.9363C147.029 18.5746 140.662 20.8405 134.734 25.0639C133.186 26.1597 130.078 29 128.853 30.4362C125.513 34.3191 123.248 38.5318 121.966 43.2127C121.55 44.702 121.157 46.7658 121.041 48.053C121.007 48.4572 120.949 49.0211 120.915 49.2976L120.845 49.8083H119.747H118.638L118.719 48.6274C118.996 44.6914 120.279 40.1808 122.243 36.2552C123.353 34.0531 125.375 31.0851 127.177 29.0107C128.483 27.5107 131.314 24.9043 132.943 23.7022C136.987 20.7235 141.633 18.4895 146.428 17.2023C149.051 16.5002 152.738 15.9151 154.702 15.8832L155.534 15.8725V16.8725ZM155.534 22.149C155.534 22.7341 155.499 23.2129 155.442 23.2129C155.014 23.2129 152.148 23.5745 151.212 23.7554C146.463 24.6384 141.795 26.6596 138.028 29.4574C136.629 30.5 134.134 32.8298 133.094 34.0638C129.731 38.0744 127.478 43.0743 126.877 47.8934C126.807 48.4465 126.726 49.1062 126.692 49.3508L126.634 49.8083H125.513H124.381L124.416 49.3508C124.75 45.0743 125.906 41.2977 128.02 37.5105C131.926 30.5213 138.582 25.2447 146.752 22.6596C148.878 21.9894 151.952 21.3937 154.263 21.2022C154.863 21.1596 155.395 21.1065 155.453 21.0959C155.499 21.0959 155.534 21.5639 155.534 22.149ZM155.511 27.5426L155.476 28.5851L154.551 28.6702C151.328 28.9575 147.526 30.117 144.719 31.6702C142.823 32.7234 141.725 33.5 140.142 34.9042C137.797 36.9786 136.295 38.8722 134.965 41.3509C133.763 43.6062 132.781 46.7551 132.574 48.9998L132.504 49.8083H131.372H130.228V49.3721C130.228 48.6061 130.586 46.6062 130.979 45.17C132.169 40.8829 134.596 36.968 138.028 33.7872C141.518 30.5532 145.816 28.2873 150.53 27.1915C152.275 26.7873 153.892 26.5319 154.875 26.5213L155.545 26.5107L155.511 27.5426Z" fill="#E3E3E3"/>
</svg>
