<svg width="21" height="22" viewBox="0 0 21 22" fill="none" xmlns="http://www.w3.org/2000/svg">
<path d="M16.4996 12.9999C16.2069 14.0184 15.6267 14.9308 14.8285 15.6278C14.0304 16.3248 13.0482 16.777 11.9996 16.9299C11.1797 17.0489 10.3441 17.001 9.54312 16.789C8.74214 16.577 7.99226 16.2053 7.33849 15.6963C6.68472 15.1873 6.14054 14.5514 5.73863 13.8269C5.33671 13.1024 5.08535 12.3041 4.99963 11.4799C4.93322 10.6526 5.03919 9.82048 5.31084 9.03619C5.5825 8.2519 6.01392 7.5325 6.57783 6.92347C7.14174 6.31445 7.82588 5.82904 8.58699 5.49795C9.3481 5.16686 10.1696 4.99729 10.9996 4.99995C11.7774 5.00104 12.5478 5.15038 13.2696 5.43995C13.3833 5.49098 13.5119 5.49773 13.6303 5.45889C13.7487 5.42004 13.8483 5.3384 13.9096 5.22995L15.3496 2.57995C15.3806 2.51891 15.3993 2.45235 15.4045 2.3841C15.4097 2.31584 15.4014 2.24722 15.38 2.18218C15.3586 2.11715 15.3246 2.05697 15.2799 2.00511C15.2353 1.95324 15.1808 1.91071 15.1196 1.87995C13.5733 1.17986 11.8743 0.884891 10.1825 1.02282C8.49076 1.16075 6.86194 1.72703 5.44948 2.66834C4.03701 3.60965 2.8874 4.895 2.10891 6.40333C1.33041 7.91166 0.948669 9.59333 0.999625 11.2899C1.09817 13.8098 2.134 16.2022 3.9042 17.9983C5.67441 19.7944 8.05142 20.8648 10.5696 21C13.2076 21.1169 15.7847 20.1858 17.7387 18.4098C19.6927 16.6338 20.8649 14.157 20.9996 11.5199V9.51995C20.9971 9.38814 20.9436 9.26245 20.8503 9.16923C20.7571 9.07601 20.6314 9.02251 20.4996 9.01995H11.4996C11.367 9.01995 11.2398 9.07263 11.1461 9.1664C11.0523 9.26016 10.9996 9.38734 10.9996 9.51995V12.5199C10.9996 12.6526 11.0523 12.7797 11.1461 12.8735C11.2398 12.9673 11.367 13.0199 11.4996 13.0199H16.4996" fill="#ADB5BD"/>
</svg>
