<svg width="22" height="22" viewBox="0 0 22 22" fill="none" xmlns="http://www.w3.org/2000/svg">
<path d="M6.20037 21.0756C8.00646 21.138 9.80635 20.8261 11.4937 20.1586C13.181 19.491 14.7215 18.4813 16.0241 17.189C17.3267 15.8967 18.365 14.3482 19.0777 12.6348C19.7904 10.9215 20.1629 9.07811 20.1734 7.21368C21.001 6.15691 21.6157 4.94011 21.981 3.63478C22.0083 3.53165 22.0061 3.42258 21.9747 3.32071C21.9433 3.21884 21.884 3.12851 21.804 3.0606C21.724 2.99269 21.6266 2.95009 21.5237 2.93794C21.4207 2.92578 21.3166 2.94459 21.2238 2.99209C20.7908 3.20715 20.3033 3.27661 19.8299 3.1907C19.3566 3.1048 18.9214 2.86784 18.5855 2.51323C18.1567 2.02879 17.6381 1.63807 17.0603 1.36423C16.4825 1.09039 15.8572 0.938999 15.2217 0.919022C14.5861 0.899044 13.9531 1.01089 13.3602 1.24793C12.7673 1.48497 12.2266 1.84239 11.77 2.299C11.1449 2.92361 10.687 3.70446 10.4409 4.56564C10.1948 5.42683 10.1687 6.33906 10.3654 7.21368C6.27365 7.46572 3.4644 5.46204 1.21699 2.71485C1.14948 2.63597 1.06116 2.57907 0.96282 2.55112C0.864482 2.52316 0.760383 2.52536 0.663234 2.55743C0.566084 2.58951 0.48009 2.65007 0.415752 2.73174C0.351413 2.8134 0.311516 2.91263 0.300931 3.0173C-0.127212 5.46761 0.181635 7.99442 1.18599 10.2584C2.19035 12.5223 3.84211 14.4149 5.91944 15.6821C4.52658 17.3302 2.57058 18.3595 0.459715 18.5553C0.346627 18.5746 0.242232 18.63 0.161142 18.7136C0.0800518 18.7971 0.0263244 18.9048 0.00747891 19.0215C-0.0113666 19.1381 0.00561323 19.258 0.0560419 19.3642C0.106471 19.4704 0.187824 19.5577 0.288717 19.6138C2.12514 20.5607 4.14745 21.0607 6.20037 21.0756Z" fill="#ADB5BD"/>
</svg>
