<svg width="263" height="91" viewBox="0 0 263 91" fill="none" xmlns="http://www.w3.org/2000/svg">
<g clip-path="url(#clip0_5_17)">
<path d="M156.003 12.8965L147.746 25.9199V58.469V91H164.948H182.15V58.4142V25.8286L173.339 12.9696C168.484 5.91909 164.451 0.0741245 164.394 0.00106242C164.318 -0.0902653 160.552 5.71818 156.003 12.8965ZM172.192 21.3534L176.416 27.5272V28.7692V30.0113L175.9 29.7373C175.594 29.5912 174.677 29.098 173.836 28.6049C172.995 28.1299 172.212 27.7464 172.097 27.7464C171.982 27.7464 170.338 28.5866 168.465 29.6278C166.592 30.669 164.967 31.5092 164.853 31.5092C164.738 31.5092 163.209 30.6324 161.431 29.573L158.22 27.6185L155.984 28.8058C154.761 29.4633 153.691 29.9931 153.614 29.9931C153.538 29.9931 153.48 29.4269 153.48 28.751V27.509L156.94 22.0476C158.832 19.0337 160.61 16.2574 160.858 15.8738L161.317 15.198H164.642H167.949L172.192 21.3534ZM174.658 35.4362L176.416 36.4225V60.9715V85.5203H174.506H172.594V59.9303C172.594 45.8658 172.67 34.3768 172.747 34.4134C172.823 34.4316 173.684 34.9064 174.658 35.4362ZM157.303 60.04V85.5203H155.392H153.48V60.9897V36.4774L155.258 35.5276C156.213 34.9978 157.074 34.5595 157.169 34.5595C157.246 34.5595 157.303 46.0303 157.303 60.04ZM166.86 61.2271V85.5203H164.948H163.037V61.3185V37.0984L163.897 37.5732L164.757 38.0665L165.751 37.5003C166.305 37.1897 166.783 36.9339 166.821 36.9339C166.841 36.9339 166.86 47.8567 166.86 61.2271Z" fill="white"/>
<path d="M65.1766 21.7005C54.9509 22.5591 46.5219 24.7874 38.2267 28.8242C31.4032 32.1301 26.2045 35.765 20.5278 41.2081C16.6095 44.9709 14.5644 47.3271 11.7547 51.3637C8.14229 56.533 5.67666 61.355 3.63155 67.2366C1.24237 74.1045 0 81.5567 0 88.9178V91H17.1829H34.3468L34.4805 87.9497C34.557 86.2692 34.7482 84.1504 34.8819 83.2188C36.3919 73.6842 42.0303 65.3004 50.4976 60.0034C52.6382 58.6517 56.3654 56.9165 58.5826 56.2224C67.413 53.4643 77.0078 54.0489 85.1501 57.8662C93.1013 61.5742 99.2749 67.8575 102.562 75.6021C104.206 79.4926 104.913 82.9267 105.066 87.6575L105.181 91H122.383H139.585L139.47 86.6529C139.26 79.1457 138.171 73.319 135.686 66.4328C128.098 45.391 109.653 29.1346 87.176 23.6914C81.2891 22.2667 77.2755 21.7737 70.9107 21.7005C68.2348 21.664 65.6545 21.664 65.1766 21.7005ZM76.6446 27.4358C99.982 29.9565 119.612 43.948 128.824 64.6064C131.519 70.6339 133.067 77.0451 133.66 84.5522L133.736 85.5203H131.863H130.009L129.894 84.2783C128.748 72.1134 124.734 62.1222 117.222 52.8068C115.082 50.14 109.653 44.9525 106.863 42.9068C95.9109 34.8335 83.3726 30.7238 69.7639 30.7238C55.983 30.7238 42.8905 35.1257 32.0149 43.4183C27.9055 46.5417 22.8023 51.8751 19.6868 56.3138C16.0552 61.4463 13.0162 68.022 11.3725 74.1774C10.7417 76.552 9.9963 80.7347 9.84338 82.7806C9.78604 83.6389 9.69048 84.607 9.63314 84.9176L9.53757 85.5203H7.74092H5.92515V84.7349C5.92515 83.5476 6.4412 79.4562 6.88081 77.1182C9.93896 60.9715 20.1072 46.3043 34.557 37.2263C43.8461 31.3995 53.7851 28.1483 64.9854 27.2533C67.413 27.0707 74.1217 27.162 76.6446 27.4358ZM77.5047 36.7331C81.2891 37.281 83.5255 37.7925 86.8703 38.8519C98.5103 42.5415 108.354 49.7381 115.158 59.492C120.338 66.926 123.243 75.0907 124.103 84.6436L124.199 85.5203H122.306C121.255 85.5203 120.414 85.4656 120.414 85.3742C120.414 85.3011 120.28 84.1869 120.127 82.8719C118.35 68.3142 110.169 55.6745 97.3827 47.6741C90.7885 43.5278 83.4108 41.0254 75.2111 40.1121C71.981 39.7468 65.6162 39.8565 62.5007 40.3132C58.2766 40.9341 53.5174 42.2128 49.6947 43.7836C39.0868 48.1125 29.683 56.606 24.4078 66.652C21.9231 71.3463 19.8205 78.3603 19.4001 83.2372C19.2089 85.7213 19.381 85.5203 17.2976 85.5203H15.4818V84.7897C15.4818 81.2645 17.0874 74.0861 18.8459 69.7389C20.7189 65.136 24.1976 59.3641 27.3321 55.6561C30.0654 52.4049 34.4615 48.4231 37.94 46.0303C45.9485 40.5506 54.8172 37.3724 64.8899 36.3861C67.6422 36.1303 74.6377 36.313 77.5047 36.7331ZM76.3579 45.7745C93.1013 48.2952 106.748 59.1449 112.253 74.3235C113.4 77.4652 114.489 82.5066 114.489 84.6436V85.5203H112.673H110.877L110.781 84.9176C110.724 84.607 110.59 83.5842 110.456 82.6892C110.341 81.7759 109.959 79.9677 109.615 78.6708C105.468 62.8345 91.6295 51.2176 74.5422 49.2633C65.1576 48.1673 55.0466 50.4688 47.2101 55.4736C37.0609 61.9578 30.4284 72.2047 29.0141 83.5476L28.7847 85.5203H26.9116H25.0385V84.8994C25.0385 84.5522 25.1341 83.6207 25.2297 82.8353C27.2174 68.4969 36.258 56.3503 49.6947 49.9026C54.9319 47.4001 59.9396 46.0485 66.2279 45.4457C67.8716 45.2813 74.5422 45.5189 76.3579 45.7745Z" fill="white"/>
<path d="M254.437 21.7919C240.199 22.906 226.493 28.2944 215.503 37.0618C201.742 48.0394 192.93 63.5834 190.846 80.5886C190.675 81.9404 190.485 84.8444 190.426 87.0182L190.312 91H207.533H224.773V89.3013C224.773 86.8903 225.118 83.5294 225.557 81.4106C227.22 73.5199 232.208 66.0309 239.013 61.2271C245.434 56.6973 252.622 54.469 260.822 54.469H263V38.0299V21.591L259.713 21.6092C257.897 21.6274 255.508 21.7187 254.437 21.7919ZM257.266 28.9703V30.6872L255.986 30.7967C243.199 31.8927 232.667 35.7832 222.861 43.0347C220.301 44.9161 215.16 49.7929 213.134 52.2588C207.609 58.9257 203.863 66.1588 201.742 74.1958C201.053 76.7529 200.404 80.2964 200.212 82.5066C200.155 83.2006 200.06 84.1687 200.003 84.6436L199.887 85.5203H198.072H196.238L196.371 83.4928C196.83 76.7347 198.951 68.9901 202.2 62.25C204.036 58.469 207.381 53.373 210.362 49.8113C212.521 47.2358 217.205 42.7607 219.899 40.6967C226.588 35.5823 234.272 31.7466 242.204 29.5365C246.543 28.331 252.641 27.3263 255.89 27.2716L257.266 27.2532V28.9703ZM257.266 38.0299C257.266 39.0345 257.209 39.8565 257.114 39.8565C256.406 39.8565 251.665 40.4775 250.118 40.788C242.263 42.3041 234.541 45.7745 228.31 50.5783C225.997 52.3684 221.868 56.3686 220.148 58.4874C214.586 65.3734 210.859 73.9582 209.865 82.2326C209.749 83.1823 209.616 84.3148 209.559 84.7349L209.464 85.5203H207.609H205.737L205.794 84.7349C206.348 77.3922 208.26 70.9079 211.757 64.4053C218.217 52.4049 229.227 43.3451 242.74 38.9066C246.256 37.7559 251.341 36.7331 255.164 36.4043C256.157 36.3312 257.036 36.2399 257.133 36.2217C257.209 36.2217 257.266 37.0253 257.266 38.0299ZM257.228 47.2906L257.171 49.0806L255.641 49.2267C250.309 49.7199 244.021 51.7108 239.377 54.3776C236.241 56.1859 234.425 57.5193 231.807 59.9303C227.928 63.492 225.443 66.7434 223.244 70.9992C221.256 74.8715 219.631 80.2781 219.288 84.1322L219.172 85.5203H217.3H215.407V84.7715C215.407 83.4563 216.001 80.0224 216.65 77.5565C218.619 70.1956 222.633 63.4738 228.31 58.0125C234.082 52.4597 241.192 48.5692 248.99 46.6878C251.876 45.9937 254.551 45.5553 256.176 45.5371L257.285 45.5189L257.228 47.2906Z" fill="white"/>
</g>
<defs>
<clipPath id="clip0_5_17">
<rect width="263" height="91" fill="white"/>
</clipPath>
</defs>
</svg>
