<svg width="31" height="31" viewBox="0 0 31 31" fill="none" xmlns="http://www.w3.org/2000/svg">
<path d="M15.4764 12.276C14.8438 12.276 14.2255 12.4636 13.6996 12.815C13.1737 13.1664 12.7638 13.6658 12.5218 14.2502C12.2797 14.8346 12.2164 15.4776 12.3398 16.0979C12.4632 16.7183 12.7677 17.2881 13.215 17.7354C13.6623 18.1826 14.2321 18.4872 14.8524 18.6106C15.4728 18.734 16.1158 18.6707 16.7002 18.4286C17.2846 18.1866 17.784 17.7767 18.1354 17.2508C18.4868 16.7249 18.6744 16.1065 18.6744 15.474C18.6744 15.0541 18.5917 14.6382 18.431 14.2502C18.2702 13.8622 18.0347 13.5096 17.7377 13.2127C17.4407 12.9157 17.0882 12.6802 16.7002 12.5194C16.3122 12.3587 15.8963 12.276 15.4764 12.276ZM28.2814 9.11665C28.2746 8.12082 28.0912 7.13409 27.7398 6.20232C27.4809 5.52049 27.0805 4.9013 26.5648 4.38561C26.0491 3.86991 25.4299 3.46944 24.7481 3.21061C23.8163 2.85916 22.8296 2.67579 21.8337 2.669C20.1702 2.57874 19.6802 2.57874 15.4764 2.57874C11.2725 2.57874 10.7825 2.57874 9.11897 2.669C8.12314 2.67579 7.13641 2.85916 6.20463 3.21061C5.52281 3.46944 4.90362 3.86991 4.38792 4.38561C3.87223 4.9013 3.47176 5.52049 3.21292 6.20232C2.86148 7.13409 2.67811 8.12082 2.67132 9.11665C2.58105 10.7801 2.58105 11.2702 2.58105 15.474C2.58105 19.6779 2.58105 20.1679 2.67132 21.8314C2.6852 22.8308 2.86833 23.8205 3.21292 24.7587C3.47061 25.4374 3.87075 26.053 4.3864 26.564C4.89988 27.0828 5.5204 27.4833 6.20463 27.7375C7.13641 28.0889 8.12314 28.2723 9.11897 28.2791C10.7825 28.3693 11.2725 28.3693 15.4764 28.3693C19.6802 28.3693 20.1702 28.3693 21.8337 28.2791C22.8296 28.2723 23.8163 28.0889 24.7481 27.7375C25.4323 27.4833 26.0528 27.0828 26.5663 26.564C27.082 26.053 27.4821 25.4374 27.7398 24.7587C28.0909 23.8223 28.2742 22.8314 28.2814 21.8314C28.3717 20.1679 28.3717 19.6779 28.3717 15.474C28.3717 11.2702 28.3717 10.7801 28.2814 9.11665ZM25.006 19.4329C24.9646 20.2287 24.7948 21.0125 24.5031 21.754C24.2527 22.3726 23.8806 22.9345 23.4087 23.4064C22.9368 23.8782 22.3749 24.2504 21.7564 24.5007C21.0078 24.7762 20.2196 24.9286 19.4223 24.9521C18.4036 24.9521 18.1328 24.9521 15.4764 24.9521C12.8199 24.9521 12.5491 24.9521 11.5304 24.9521C10.7331 24.9286 9.9449 24.7762 9.19634 24.5007C8.55687 24.2631 7.97938 23.884 7.50706 23.3918C7.03982 22.9291 6.67898 22.3703 6.44964 21.754C6.17311 21.0063 6.02488 20.2172 6.0112 19.42C6.0112 18.4013 6.0112 18.1305 6.0112 15.474C6.0112 12.8176 6.0112 12.5468 6.0112 11.5281C6.02488 10.7309 6.17311 9.9418 6.44964 9.19403C6.68728 8.55455 7.06639 7.97707 7.55864 7.50474C8.0233 7.04002 8.58158 6.67956 9.19634 6.44733C9.9449 6.17189 10.7331 6.01947 11.5304 5.99599C12.5491 5.99599 12.8199 5.99599 15.4764 5.99599C18.1328 5.99599 18.4036 5.99599 19.4223 5.99599C20.2196 6.01947 21.0078 6.17189 21.7564 6.44733C22.3958 6.68496 22.9733 7.06407 23.4456 7.55632C23.9129 8.01894 24.2737 8.5778 24.5031 9.19403C24.7785 9.94258 24.9309 10.7308 24.9544 11.5281C24.9544 12.5468 24.9544 12.8176 24.9544 15.474C24.9544 18.1305 25.0447 18.4013 25.006 19.42V19.4329ZM22.9427 9.83879C22.7892 9.42225 22.5471 9.04398 22.2332 8.73007C21.9193 8.41616 21.541 8.17409 21.1245 8.02055C20.5525 7.8223 19.9502 7.72627 19.3449 7.73686C18.3391 7.73686 18.0554 7.73686 15.4764 7.73686C12.8973 7.73686 12.6136 7.73686 11.6078 7.73686C10.9994 7.7428 10.397 7.85631 9.82821 8.07213C9.41805 8.2187 9.04378 8.45088 8.73029 8.75326C8.41679 9.05564 8.17125 9.42129 8.00998 9.82589C7.82271 10.4002 7.73122 11.0014 7.73917 11.6054C7.73917 12.6113 7.73917 12.895 7.73917 15.474C7.73917 18.0531 7.73917 18.3368 7.73917 19.3426C7.75196 19.9502 7.86525 20.5516 8.07445 21.1222C8.22799 21.5387 8.47006 21.917 8.78397 22.2309C9.09788 22.5448 9.47615 22.7869 9.89269 22.9404C10.4429 23.1428 11.0219 23.2559 11.6078 23.2757C12.6136 23.2757 12.8973 23.2757 15.4764 23.2757C18.0554 23.2757 18.3391 23.2757 19.3449 23.2757C19.9533 23.2697 20.5557 23.1562 21.1245 22.9404C21.541 22.7869 21.9193 22.5448 22.2332 22.2309C22.5471 21.917 22.7892 21.5387 22.9427 21.1222C23.1586 20.5534 23.2721 19.9509 23.278 19.3426C23.278 18.3368 23.278 18.0531 23.278 15.474C23.278 12.895 23.278 12.6113 23.278 11.6054C23.2784 10.9965 23.1647 10.3929 22.9427 9.82589V9.83879ZM15.4764 20.4C14.8301 20.4 14.1901 20.2725 13.5932 20.0248C12.9963 19.7771 12.4541 19.4141 11.9977 18.9565C11.5413 18.4989 11.1797 17.9557 10.9335 17.3582C10.6874 16.7606 10.5615 16.1203 10.5632 15.474C10.5632 14.4992 10.8525 13.5463 11.3943 12.736C11.9362 11.9256 12.7063 11.2942 13.6071 10.9218C14.508 10.5493 15.4991 10.4525 16.455 10.6436C17.4109 10.8348 18.2886 11.3052 18.977 11.9954C19.6654 12.6856 20.1336 13.5646 20.3222 14.5209C20.5108 15.4773 20.4114 16.4682 20.0366 17.3681C19.6618 18.268 19.0284 19.0364 18.2166 19.5761C17.4048 20.1159 16.4512 20.4026 15.4764 20.4ZM20.6345 11.5152C20.3494 11.485 20.0856 11.3504 19.8939 11.1373C19.7021 10.9242 19.5961 10.6477 19.5961 10.361C19.5961 10.0744 19.7021 9.79789 19.8939 9.58479C20.0856 9.3717 20.3494 9.23709 20.6345 9.20692C20.9195 9.23709 21.1833 9.3717 21.3751 9.58479C21.5668 9.79789 21.6729 10.0744 21.6729 10.361C21.6729 10.6477 21.5668 10.9242 21.3751 11.1373C21.1833 11.3504 20.9195 11.485 20.6345 11.5152Z" fill="#343A40"/>
</svg>
