<svg width="25" height="24" viewBox="0 0 25 24" fill="none" xmlns="http://www.w3.org/2000/svg">
<g clip-path="url(#clip0_5_23)">
<path d="M0.797852 3.30188C0.797852 2.52033 1.05925 1.87556 1.58203 1.36758C2.1048 0.859581 2.78443 0.605591 3.62088 0.605591C4.4424 0.605591 5.10706 0.855665 5.61492 1.35586C6.13769 1.87167 6.39909 2.54377 6.39909 3.37221C6.39909 4.12249 6.14518 4.7477 5.63732 5.24789C5.11455 5.7637 4.42745 6.02161 3.57607 6.02161H3.55366C2.73214 6.02161 2.06747 5.7637 1.55962 5.24789C1.05177 4.73208 0.797852 4.0834 0.797852 3.30188ZM1.08912 23.8171V8.15519H6.06302V23.8171H1.08912ZM8.81883 23.8171H13.7927V15.0718C13.7927 14.5247 13.8525 14.1026 13.972 13.8057C14.1811 13.2742 14.4985 12.8248 14.9242 12.4575C15.3499 12.0902 15.8839 11.9065 16.5261 11.9065C18.199 11.9065 19.0355 13.0867 19.0355 15.4469V23.8171H24.0094V14.8373C24.0094 12.5239 23.4866 10.7694 22.441 9.57367C21.3955 8.37793 20.0138 7.78006 18.2961 7.78006C16.3693 7.78006 14.8682 8.64756 13.7927 10.3826V10.4295H13.7703L13.7927 10.3826V8.15519H8.81883C8.84869 8.65536 8.86364 10.2106 8.86364 12.8209C8.86364 15.4312 8.84869 19.0966 8.81883 23.8171Z" fill="#343A40"/>
</g>
<defs>
<clipPath id="clip0_5_23">
<rect width="23.2115" height="23.2115" fill="white" transform="translate(0.797852 0.605469)"/>
</clipPath>
</defs>
</svg>
