<svg width="40" height="40" viewBox="0 0 40 40" fill="none" xmlns="http://www.w3.org/2000/svg">
<path d="M5.83301 33.3337C5.16634 33.3337 4.58301 33.0837 4.08301 32.5837C3.58301 32.0837 3.33301 31.5003 3.33301 30.8337V9.16699C3.33301 8.50033 3.58301 7.91699 4.08301 7.41699C4.58301 6.91699 5.16634 6.66699 5.83301 6.66699H34.1663C34.833 6.66699 35.4163 6.91699 35.9163 7.41699C36.4163 7.91699 36.6663 8.50033 36.6663 9.16699V30.8337C36.6663 31.5003 36.4163 32.0837 35.9163 32.5837C35.4163 33.0837 34.833 33.3337 34.1663 33.3337H5.83301ZM19.9997 20.7503L34.1663 11.4587V9.16699L19.9997 18.2503L5.83301 9.16699V11.4587L19.9997 20.7503Z" fill="#6C757D"/>
</svg>
