<svg width="31" height="31" viewBox="0 0 31 31" fill="none" xmlns="http://www.w3.org/2000/svg">
<path d="M28.3717 7.47953C27.4024 7.90004 26.3773 8.17802 25.3284 8.30483C26.435 7.64371 27.2643 6.60366 27.6624 5.3776C26.6225 5.99665 25.4841 6.43281 24.2967 6.66713C23.5031 5.80646 22.4462 5.23355 21.2919 5.03826C20.1376 4.84297 18.951 5.03633 17.9185 5.58803C16.8859 6.13973 16.0656 7.01856 15.5863 8.08669C15.107 9.15481 14.9957 10.3518 15.27 11.49C13.1674 11.3836 11.1106 10.8361 9.23329 9.88303C7.35601 8.92995 5.70023 7.59261 4.3735 5.95788C3.90816 6.77051 3.66364 7.69078 3.66426 8.62721C3.66261 9.49685 3.87602 10.3534 4.2855 11.1206C4.69497 11.8878 5.2878 12.5418 6.0112 13.0245C5.1704 13.0016 4.34756 12.776 3.61268 12.3668V12.4313C3.61898 13.6498 4.04595 14.8287 4.82137 15.7686C5.59679 16.7085 6.67306 17.3517 7.86813 17.5894C7.40809 17.7294 6.93048 17.8033 6.44964 17.8087C6.1168 17.8048 5.78479 17.7746 5.45671 17.7184C5.79703 18.7665 6.45561 19.6825 7.34081 20.3389C8.22601 20.9953 9.2938 21.3594 10.3956 21.3807C8.53508 22.8446 6.23801 23.6436 3.87058 23.6502C3.43954 23.6516 3.00884 23.6258 2.58105 23.5729C4.99819 25.1335 7.81501 25.962 10.6922 25.9585C12.6777 25.9791 14.6474 25.6039 16.4862 24.8548C18.325 24.1056 19.9962 22.9976 21.402 21.5954C22.8078 20.1931 23.9201 18.5249 24.674 16.6879C25.4278 14.851 25.8081 12.8823 25.7926 10.8968C25.7926 10.6776 25.7926 10.4454 25.7926 10.2133C26.8045 9.45871 27.6772 8.53362 28.3717 7.47953Z" fill="#343A40"/>
</svg>
