<svg width="1920" height="72" viewBox="0 0 1920 72" fill="none" xmlns="http://www.w3.org/2000/svg">
<path d="M71.11 0V58.9H19.39V26.18H45.26V32.72H25.86V52.36H64.65V6.54H0V0H71.11Z" fill="#FDFDFD"/>
<path d="M71.11 65.4501V72.0001H0V65.4501H6.46V13.0901H58.18V45.8101H32.33V39.2701H51.72V19.6301H12.93V65.4501H71.11Z" fill="#FDFDFD"/>
<path d="M142.22 0V58.9H90.5V26.18H116.37V32.72H96.98V52.36H135.76V6.54H71.11V0H142.22Z" fill="#FDFDFD"/>
<path d="M142.22 65.4501V72.0001H71.11V65.4501H77.57V13.0901H129.29V45.8101H103.44V39.2701H122.83V19.6301H84.04V65.4501H142.22Z" fill="#FDFDFD"/>
<path d="M213.33 0V58.9H161.62V26.18H187.48V32.72H168.09V52.36H206.87V6.54H142.22V0H213.33Z" fill="#FDFDFD"/>
<path d="M213.33 65.4501V72.0001H142.22V65.4501H148.68V13.0901H200.4V45.8101H174.55V39.2701H193.94V19.6301H155.15V65.4501H213.33Z" fill="#FDFDFD"/>
<path d="M284.44 0V58.9H232.73V26.18H258.59V32.72H239.2V52.36H277.98V6.54H213.33V0H284.44Z" fill="#FDFDFD"/>
<path d="M284.44 65.4501V72.0001H213.33V65.4501H219.79V13.0901H271.51V45.8101H245.66V39.2701H265.05V19.6301H226.27V65.4501H284.44Z" fill="#FDFDFD"/>
<path d="M355.56 0V58.9H303.84V26.18H329.7V32.72H310.31V52.36H349.09V6.54H284.44V0H355.56Z" fill="#FDFDFD"/>
<path d="M355.56 65.4501V72.0001H284.44V65.4501H290.91V13.0901H342.62V45.8101H316.77V39.2701H336.16V19.6301H297.38V65.4501H355.56Z" fill="#FDFDFD"/>
<path d="M426.67 0V58.9H374.95V26.18H400.81V32.72H381.42V52.36H420.21V6.54H355.56V0H426.67Z" fill="#FDFDFD"/>
<path d="M426.67 65.4501V72.0001H355.56V65.4501H362.02V13.0901H413.73V45.8101H387.88V39.2701H407.27V19.6301H368.49V65.4501H426.67Z" fill="#FDFDFD"/>
<path d="M497.78 0V58.9H446.06V26.18H471.92V32.72H452.53V52.36H491.32V6.54H426.67V0H497.78Z" fill="#FDFDFD"/>
<path d="M497.78 65.4501V72.0001H426.67V65.4501H433.13V13.0901H484.85V45.8101H458.99V39.2701H478.38V19.6301H439.6V65.4501H497.78Z" fill="#FDFDFD"/>
<path d="M568.89 0V58.9H517.17V26.18H543.03V32.72H523.64V52.36H562.43V6.54H497.78V0H568.89Z" fill="#FDFDFD"/>
<path d="M568.89 65.4501V72.0001H497.78V65.4501H504.24V13.0901H555.96V45.8101H530.1V39.2701H549.5V19.6301H510.71V65.4501H568.89Z" fill="#FDFDFD"/>
<path d="M640 0V58.9H588.28V26.18H614.15V32.72H594.75V52.36H633.54V6.54H568.89V0H640Z" fill="#FDFDFD"/>
<path d="M640 65.4501V72.0001H568.89V65.4501H575.35V13.0901H627.07V45.8101H601.21V39.2701H620.61V19.6301H581.82V65.4501H640Z" fill="#FDFDFD"/>
<path d="M711.11 0V58.9H659.39V26.18H685.26V32.72H665.86V52.36H704.65V6.54H640V0H711.11Z" fill="#FDFDFD"/>
<path d="M711.11 65.4501V72.0001H640V65.4501H646.46V13.0901H698.18V45.8101H672.33V39.2701H691.72V19.6301H652.93V65.4501H711.11Z" fill="#FDFDFD"/>
<path d="M782.22 0V58.9H730.5V26.18H756.37V32.72H736.98V52.36H775.76V6.54H711.11V0H782.22Z" fill="#FDFDFD"/>
<path d="M782.22 65.4501V72.0001H711.11V65.4501H717.57V13.0901H769.29V45.8101H743.44V39.2701H762.83V19.6301H724.04V65.4501H782.22Z" fill="#FDFDFD"/>
<path d="M853.33 0V58.9H801.62V26.18H827.48V32.72H808.09V52.36H846.87V6.54H782.22V0H853.33Z" fill="#FDFDFD"/>
<path d="M853.33 65.4501V72.0001H782.22V65.4501H788.68V13.0901H840.4V45.8101H814.55V39.2701H833.94V19.6301H795.15V65.4501H853.33Z" fill="#FDFDFD"/>
<path d="M924.44 0V58.9H872.73V26.18H898.59V32.72H879.2V52.36H917.98V6.54H853.33V0H924.44Z" fill="#FDFDFD"/>
<path d="M924.44 65.4501V72.0001H853.33V65.4501H859.79V13.0901H911.51V45.8101H885.66V39.2701H905.05V19.6301H866.27V65.4501H924.44Z" fill="#FDFDFD"/>
<path d="M995.56 0V58.9H943.84V26.18H969.7V32.72H950.31V52.36H989.09V6.54H924.44V0H995.56Z" fill="#FDFDFD"/>
<path d="M995.56 65.4501V72.0001H924.44V65.4501H930.91V13.0901H982.62V45.8101H956.77V39.2701H976.16V19.6301H937.38V65.4501H995.56Z" fill="#FDFDFD"/>
<path d="M1066.67 0V58.9H1014.95V26.18H1040.81V32.72H1021.42V52.36H1060.21V6.54H995.56V0H1066.67Z" fill="#FDFDFD"/>
<path d="M1066.67 65.4501V72.0001H995.56V65.4501H1002.02V13.0901H1053.73V45.8101H1027.88V39.2701H1047.27V19.6301H1008.49V65.4501H1066.67Z" fill="#FDFDFD"/>
<path d="M1137.78 0V58.9H1086.06V26.18H1111.92V32.72H1092.53V52.36H1131.32V6.54H1066.67V0H1137.78Z" fill="#FDFDFD"/>
<path d="M1137.78 65.4501V72.0001H1066.67V65.4501H1073.13V13.0901H1124.85V45.8101H1098.99V39.2701H1118.38V19.6301H1079.6V65.4501H1137.78Z" fill="#FDFDFD"/>
<path d="M1208.89 0V58.9H1157.17V26.18H1183.03V32.72H1163.64V52.36H1202.43V6.54H1137.78V0H1208.89Z" fill="#FDFDFD"/>
<path d="M1208.89 65.4501V72.0001H1137.78V65.4501H1144.24V13.0901H1195.96V45.8101H1170.1V39.2701H1189.5V19.6301H1150.71V65.4501H1208.89Z" fill="#FDFDFD"/>
<path d="M1280 0V58.9H1228.28V26.18H1254.15V32.72H1234.75V52.36H1273.54V6.54H1208.89V0H1280Z" fill="#FDFDFD"/>
<path d="M1280 65.4501V72.0001H1208.89V65.4501H1215.35V13.0901H1267.07V45.8101H1241.21V39.2701H1260.61V19.6301H1221.82V65.4501H1280Z" fill="#FDFDFD"/>
<path d="M1351.11 0V58.9H1299.39V26.18H1325.26V32.72H1305.86V52.36H1344.65V6.54H1280V0H1351.11Z" fill="#FDFDFD"/>
<path d="M1351.11 65.4501V72.0001H1280V65.4501H1286.46V13.0901H1338.18V45.8101H1312.33V39.2701H1331.72V19.6301H1292.93V65.4501H1351.11Z" fill="#FDFDFD"/>
<path d="M1422.22 0V58.9H1370.5V26.18H1396.37V32.72H1376.98V52.36H1415.76V6.54H1351.11V0H1422.22Z" fill="#FDFDFD"/>
<path d="M1422.22 65.4501V72.0001H1351.11V65.4501H1357.57V13.0901H1409.29V45.8101H1383.44V39.2701H1402.83V19.6301H1364.04V65.4501H1422.22Z" fill="#FDFDFD"/>
<path d="M1493.33 0V58.9H1441.62V26.18H1467.48V32.72H1448.09V52.36H1486.87V6.54H1422.22V0H1493.33Z" fill="#FDFDFD"/>
<path d="M1493.33 65.4501V72.0001H1422.22V65.4501H1428.68V13.0901H1480.4V45.8101H1454.55V39.2701H1473.94V19.6301H1435.15V65.4501H1493.33Z" fill="#FDFDFD"/>
<path d="M1564.44 0V58.9H1512.73V26.18H1538.59V32.72H1519.2V52.36H1557.98V6.54H1493.33V0H1564.44Z" fill="#FDFDFD"/>
<path d="M1564.44 65.4501V72.0001H1493.33V65.4501H1499.79V13.0901H1551.51V45.8101H1525.66V39.2701H1545.05V19.6301H1506.27V65.4501H1564.44Z" fill="#FDFDFD"/>
<path d="M1635.56 0V58.9H1583.84V26.18H1609.7V32.72H1590.31V52.36H1629.09V6.54H1564.44V0H1635.56Z" fill="#FDFDFD"/>
<path d="M1635.56 65.4501V72.0001H1564.44V65.4501H1570.91V13.0901H1622.62V45.8101H1596.77V39.2701H1616.16V19.6301H1577.38V65.4501H1635.56Z" fill="#FDFDFD"/>
<path d="M1706.67 0V58.9H1654.95V26.18H1680.81V32.72H1661.42V52.36H1700.21V6.54H1635.56V0H1706.67Z" fill="#FDFDFD"/>
<path d="M1706.67 65.4501V72.0001H1635.56V65.4501H1642.02V13.0901H1693.73V45.8101H1667.88V39.2701H1687.27V19.6301H1648.49V65.4501H1706.67Z" fill="#FDFDFD"/>
<path d="M1777.78 0V58.9H1726.06V26.18H1751.92V32.72H1732.53V52.36H1771.32V6.54H1706.67V0H1777.78Z" fill="#FDFDFD"/>
<path d="M1777.78 65.4501V72.0001H1706.67V65.4501H1713.13V13.0901H1764.85V45.8101H1738.99V39.2701H1758.38V19.6301H1719.6V65.4501H1777.78Z" fill="#FDFDFD"/>
<path d="M1848.89 0V58.9H1797.17V26.18H1823.03V32.72H1803.64V52.36H1842.43V6.54H1777.78V0H1848.89Z" fill="#FDFDFD"/>
<path d="M1848.89 65.4501V72.0001H1777.78V65.4501H1784.24V13.0901H1835.96V45.8101H1810.1V39.2701H1829.5V19.6301H1790.71V65.4501H1848.89Z" fill="#FDFDFD"/>
<path d="M1920 0V58.9H1868.28V26.18H1894.15V32.72H1874.75V52.36H1913.54V6.54H1848.89V0H1920Z" fill="#FDFDFD"/>
<path d="M1920 65.4501V72.0001H1848.89V65.4501H1855.35V13.0901H1907.07V45.8101H1881.21V39.2701H1900.61V19.6301H1861.82V65.4501H1920Z" fill="#FDFDFD"/>
</svg>
